<mxfile host="app.diagrams.net" modified="2022-08-03T15:41:19.474Z" agent="5.0 (Windows NT 10.0; Win64; x64) AppleWebKit/537.36 (KHTML, like Gecko) Chrome/103.0.5060.134 Safari/537.36 Edg/103.0.1264.77" etag="xJ3B4mAUEKPp2e_87HQS" version="20.2.2" type="github">
  <diagram id="lvCcTXG_fDkUPCm9oDBO" name="第 1 页">
    <mxGraphModel dx="1422" dy="804" grid="1" gridSize="10" guides="1" tooltips="1" connect="1" arrows="1" fold="1" page="1" pageScale="1" pageWidth="1200" pageHeight="1920" math="0" shadow="0">
      <root>
        <mxCell id="0" />
        <mxCell id="1" parent="0" />
        <mxCell id="j2zAglMJPE3-f1ns9y2y-5" style="edgeStyle=orthogonalEdgeStyle;curved=1;rounded=1;sketch=1;hachureGap=4;orthogonalLoop=1;jettySize=auto;html=1;exitX=0.2;exitY=1.013;exitDx=0;exitDy=0;entryX=0.105;entryY=0.015;entryDx=0;entryDy=0;entryPerimeter=0;fontFamily=Architects Daughter;fontSource=https%3A%2F%2Ffonts.googleapis.com%2Fcss%3Ffamily%3DArchitects%2BDaughter;fontSize=48;fontColor=#46495D;endArrow=open;startSize=14;endSize=14;sourcePerimeterSpacing=8;targetPerimeterSpacing=8;strokeColor=#788AA3;fillColor=#B2C9AB;exitPerimeter=0;" parent="1" source="j2zAglMJPE3-f1ns9y2y-1" target="j2zAglMJPE3-f1ns9y2y-3" edge="1">
          <mxGeometry relative="1" as="geometry">
            <Array as="points">
              <mxPoint x="200" y="161" />
              <mxPoint x="200" y="225" />
              <mxPoint x="153" y="225" />
            </Array>
          </mxGeometry>
        </mxCell>
        <mxCell id="j2zAglMJPE3-f1ns9y2y-6" value="&lt;font style=&quot;font-size: 20px;&quot;&gt;1. 读miss&lt;/font&gt;" style="edgeLabel;html=1;align=center;verticalAlign=middle;resizable=0;points=[];fontSize=48;fontFamily=Architects Daughter;fontColor=#46495D;sketch=1;rounded=1;" parent="j2zAglMJPE3-f1ns9y2y-5" vertex="1" connectable="0">
          <mxGeometry x="0.0817" y="2" relative="1" as="geometry">
            <mxPoint as="offset" />
          </mxGeometry>
        </mxCell>
        <mxCell id="j2zAglMJPE3-f1ns9y2y-7" style="edgeStyle=orthogonalEdgeStyle;curved=1;rounded=1;sketch=1;hachureGap=4;orthogonalLoop=1;jettySize=auto;html=1;exitX=0.75;exitY=1;exitDx=0;exitDy=0;entryX=0.154;entryY=0;entryDx=0;entryDy=0;entryPerimeter=0;fontFamily=Architects Daughter;fontSource=https%3A%2F%2Ffonts.googleapis.com%2Fcss%3Ffamily%3DArchitects%2BDaughter;fontSize=20;fontColor=#46495D;endArrow=open;startSize=14;endSize=14;sourcePerimeterSpacing=8;targetPerimeterSpacing=8;strokeColor=#788AA3;fillColor=#B2C9AB;" parent="1" source="j2zAglMJPE3-f1ns9y2y-1" target="j2zAglMJPE3-f1ns9y2y-4" edge="1">
          <mxGeometry relative="1" as="geometry">
            <Array as="points">
              <mxPoint x="350" y="160" />
              <mxPoint x="350" y="235" />
              <mxPoint x="560" y="235" />
            </Array>
          </mxGeometry>
        </mxCell>
        <mxCell id="j2zAglMJPE3-f1ns9y2y-8" value="2.&amp;nbsp;读DB" style="edgeLabel;html=1;align=center;verticalAlign=middle;resizable=0;points=[];fontSize=20;fontFamily=Architects Daughter;fontColor=#46495D;sketch=1;rounded=1;" parent="j2zAglMJPE3-f1ns9y2y-7" vertex="1" connectable="0">
          <mxGeometry x="-0.3333" y="7" relative="1" as="geometry">
            <mxPoint x="-35" y="-25" as="offset" />
          </mxGeometry>
        </mxCell>
        <mxCell id="j2zAglMJPE3-f1ns9y2y-13" style="edgeStyle=orthogonalEdgeStyle;curved=1;rounded=1;sketch=1;hachureGap=4;orthogonalLoop=1;jettySize=auto;html=1;exitX=0.5;exitY=1;exitDx=0;exitDy=0;entryX=0.405;entryY=-0.023;entryDx=0;entryDy=0;entryPerimeter=0;fontFamily=Architects Daughter;fontSource=https%3A%2F%2Ffonts.googleapis.com%2Fcss%3Ffamily%3DArchitects%2BDaughter;fontSize=20;fontColor=#46495D;endArrow=open;startSize=14;endSize=14;sourcePerimeterSpacing=8;targetPerimeterSpacing=8;strokeColor=#788AA3;fillColor=#B2C9AB;" parent="1" source="j2zAglMJPE3-f1ns9y2y-1" target="j2zAglMJPE3-f1ns9y2y-3" edge="1">
          <mxGeometry relative="1" as="geometry" />
        </mxCell>
        <mxCell id="j2zAglMJPE3-f1ns9y2y-14" value="5. 写Cache" style="edgeLabel;html=1;align=center;verticalAlign=middle;resizable=0;points=[];fontSize=20;fontFamily=Architects Daughter;fontColor=#46495D;sketch=1;rounded=1;" parent="j2zAglMJPE3-f1ns9y2y-13" vertex="1" connectable="0">
          <mxGeometry x="-0.1573" y="-10" relative="1" as="geometry">
            <mxPoint as="offset" />
          </mxGeometry>
        </mxCell>
        <mxCell id="j2zAglMJPE3-f1ns9y2y-1" value="&lt;span style=&quot;font-family: &amp;quot;Architects Daughter&amp;quot;; font-size: 48px;&quot;&gt;Read&lt;/span&gt;" style="rounded=1;whiteSpace=wrap;html=1;sketch=1;fillColor=#B2C9AB;strokeColor=#788AA3;fontColor=#46495D;" parent="1" vertex="1">
          <mxGeometry x="190" y="80" width="160" height="80" as="geometry" />
        </mxCell>
        <mxCell id="j2zAglMJPE3-f1ns9y2y-9" style="edgeStyle=orthogonalEdgeStyle;curved=1;rounded=1;sketch=1;hachureGap=4;orthogonalLoop=1;jettySize=auto;html=1;exitX=0.75;exitY=1;exitDx=0;exitDy=0;entryX=0.75;entryY=0;entryDx=0;entryDy=0;fontFamily=Architects Daughter;fontSource=https%3A%2F%2Ffonts.googleapis.com%2Fcss%3Ffamily%3DArchitects%2BDaughter;fontSize=20;fontColor=#46495D;endArrow=open;startSize=14;endSize=14;sourcePerimeterSpacing=8;targetPerimeterSpacing=8;strokeColor=#788AA3;fillColor=#B2C9AB;" parent="1" source="j2zAglMJPE3-f1ns9y2y-2" target="j2zAglMJPE3-f1ns9y2y-4" edge="1">
          <mxGeometry relative="1" as="geometry" />
        </mxCell>
        <mxCell id="j2zAglMJPE3-f1ns9y2y-10" value="&lt;font color=&quot;#ff0000&quot;&gt;3. 写DB&lt;/font&gt;" style="edgeLabel;html=1;align=center;verticalAlign=middle;resizable=0;points=[];fontSize=20;fontFamily=Architects Daughter;fontColor=#46495D;sketch=1;rounded=1;" parent="j2zAglMJPE3-f1ns9y2y-9" vertex="1" connectable="0">
          <mxGeometry x="-0.3928" y="10" relative="1" as="geometry">
            <mxPoint as="offset" />
          </mxGeometry>
        </mxCell>
        <mxCell id="j2zAglMJPE3-f1ns9y2y-11" style="edgeStyle=orthogonalEdgeStyle;curved=1;rounded=1;sketch=1;hachureGap=4;orthogonalLoop=1;jettySize=auto;html=1;exitX=0.327;exitY=1.029;exitDx=0;exitDy=0;entryX=0.723;entryY=-0.015;entryDx=0;entryDy=0;entryPerimeter=0;fontFamily=Architects Daughter;fontSource=https%3A%2F%2Ffonts.googleapis.com%2Fcss%3Ffamily%3DArchitects%2BDaughter;fontSize=20;fontColor=#46495D;endArrow=open;startSize=14;endSize=14;sourcePerimeterSpacing=8;targetPerimeterSpacing=8;strokeColor=#788AA3;fillColor=#B2C9AB;exitPerimeter=0;" parent="1" source="j2zAglMJPE3-f1ns9y2y-2" edge="1">
          <mxGeometry relative="1" as="geometry">
            <mxPoint x="608.44" y="160" as="sourcePoint" />
            <mxPoint x="299.99999999999994" y="318.04999999999995" as="targetPoint" />
            <Array as="points">
              <mxPoint x="600" y="157" />
              <mxPoint x="600" y="235" />
              <mxPoint x="300" y="235" />
            </Array>
          </mxGeometry>
        </mxCell>
        <mxCell id="j2zAglMJPE3-f1ns9y2y-12" value="&lt;font color=&quot;#ff0000&quot;&gt;4.&amp;nbsp;删Cache&lt;/font&gt;" style="edgeLabel;html=1;align=center;verticalAlign=middle;resizable=0;points=[];fontSize=20;fontFamily=Architects Daughter;fontColor=#46495D;sketch=1;rounded=1;" parent="j2zAglMJPE3-f1ns9y2y-11" vertex="1" connectable="0">
          <mxGeometry x="-0.4705" y="-16" relative="1" as="geometry">
            <mxPoint as="offset" />
          </mxGeometry>
        </mxCell>
        <mxCell id="j2zAglMJPE3-f1ns9y2y-2" value="&lt;font color=&quot;#ff0000&quot; style=&quot;font-size: 48px;&quot;&gt;Write&lt;/font&gt;" style="rounded=1;whiteSpace=wrap;html=1;sketch=1;hachureGap=4;fontFamily=Architects Daughter;fontSource=https%3A%2F%2Ffonts.googleapis.com%2Fcss%3Ffamily%3DArchitects%2BDaughter;fontSize=20;fontColor=#46495D;strokeColor=#788AA3;fillColor=#B2C9AB;" parent="1" vertex="1">
          <mxGeometry x="560" y="85" width="150" height="70" as="geometry" />
        </mxCell>
        <mxCell id="j2zAglMJPE3-f1ns9y2y-3" value="&lt;font style=&quot;font-size: 48px;&quot;&gt;Cache&lt;/font&gt;" style="rounded=1;whiteSpace=wrap;html=1;sketch=1;hachureGap=4;fontFamily=Architects Daughter;fontSource=https%3A%2F%2Ffonts.googleapis.com%2Fcss%3Ffamily%3DArchitects%2BDaughter;fontSize=20;fontColor=#46495D;strokeColor=#788AA3;fillColor=#B2C9AB;" parent="1" vertex="1">
          <mxGeometry x="130" y="315" width="220" height="130" as="geometry" />
        </mxCell>
        <mxCell id="j2zAglMJPE3-f1ns9y2y-4" value="&lt;font style=&quot;font-size: 48px;&quot;&gt;DB&lt;/font&gt;" style="rounded=1;whiteSpace=wrap;html=1;sketch=1;hachureGap=4;fontFamily=Architects Daughter;fontSource=https%3A%2F%2Ffonts.googleapis.com%2Fcss%3Ffamily%3DArchitects%2BDaughter;fontSize=20;fontColor=#46495D;strokeColor=#788AA3;fillColor=#B2C9AB;" parent="1" vertex="1">
          <mxGeometry x="520" y="320" width="260" height="120" as="geometry" />
        </mxCell>
        <mxCell id="j2zAglMJPE3-f1ns9y2y-16" value="&lt;span style=&quot;font-family: 微软雅黑; background-color: rgba(255, 255, 255, 0.01);&quot;&gt;&lt;font style=&quot;font-size: 24px;&quot;&gt;&lt;b&gt;先更新数据库，再删除db，在该情况下会造成缓存不一致的情况&lt;/b&gt;&lt;/font&gt;&lt;/span&gt;" style="text;html=1;align=center;verticalAlign=middle;resizable=0;points=[];autosize=1;strokeColor=none;fillColor=none;fontSize=20;fontFamily=Architects Daughter;fontColor=#46495D;sketch=1;rounded=1;" parent="1" vertex="1">
          <mxGeometry x="110" y="20" width="700" height="40" as="geometry" />
        </mxCell>
        <mxCell id="j2zAglMJPE3-f1ns9y2y-20" style="edgeStyle=orthogonalEdgeStyle;curved=1;rounded=1;sketch=1;hachureGap=4;orthogonalLoop=1;jettySize=auto;html=1;exitX=0.25;exitY=1;exitDx=0;exitDy=0;entryX=0.5;entryY=0;entryDx=0;entryDy=0;fontFamily=Architects Daughter;fontSource=https%3A%2F%2Ffonts.googleapis.com%2Fcss%3Ffamily%3DArchitects%2BDaughter;fontSize=48;fontColor=#46495D;endArrow=open;startSize=14;endSize=14;sourcePerimeterSpacing=8;targetPerimeterSpacing=8;strokeColor=#788AA3;fillColor=#B2C9AB;" parent="1" source="j2zAglMJPE3-f1ns9y2y-17" target="j2zAglMJPE3-f1ns9y2y-18" edge="1">
          <mxGeometry relative="1" as="geometry" />
        </mxCell>
        <mxCell id="j2zAglMJPE3-f1ns9y2y-21" value="&lt;font color=&quot;#46495d&quot; style=&quot;font-size: 20px;&quot;&gt;写DB&lt;/font&gt;" style="edgeLabel;html=1;align=center;verticalAlign=middle;resizable=0;points=[];fontSize=48;fontFamily=Architects Daughter;fontColor=#46495D;sketch=1;rounded=1;" parent="j2zAglMJPE3-f1ns9y2y-20" vertex="1" connectable="0">
          <mxGeometry x="-0.5845" y="-7" relative="1" as="geometry">
            <mxPoint as="offset" />
          </mxGeometry>
        </mxCell>
        <mxCell id="j2zAglMJPE3-f1ns9y2y-22" style="edgeStyle=orthogonalEdgeStyle;curved=1;rounded=1;sketch=1;hachureGap=4;orthogonalLoop=1;jettySize=auto;html=1;exitX=0.75;exitY=1;exitDx=0;exitDy=0;entryX=0.5;entryY=0;entryDx=0;entryDy=0;fontFamily=Architects Daughter;fontSource=https%3A%2F%2Ffonts.googleapis.com%2Fcss%3Ffamily%3DArchitects%2BDaughter;fontSize=20;fontColor=#46495D;endArrow=open;startSize=14;endSize=14;sourcePerimeterSpacing=8;targetPerimeterSpacing=8;strokeColor=#788AA3;fillColor=#B2C9AB;" parent="1" source="j2zAglMJPE3-f1ns9y2y-17" target="j2zAglMJPE3-f1ns9y2y-19" edge="1">
          <mxGeometry relative="1" as="geometry" />
        </mxCell>
        <mxCell id="j2zAglMJPE3-f1ns9y2y-23" value="删缓存" style="edgeLabel;html=1;align=center;verticalAlign=middle;resizable=0;points=[];fontSize=20;fontFamily=Architects Daughter;fontColor=#46495D;sketch=1;rounded=1;" parent="j2zAglMJPE3-f1ns9y2y-22" vertex="1" connectable="0">
          <mxGeometry x="-0.1675" y="11" relative="1" as="geometry">
            <mxPoint x="-8" y="-16" as="offset" />
          </mxGeometry>
        </mxCell>
        <mxCell id="j2zAglMJPE3-f1ns9y2y-17" value="&lt;font color=&quot;#46495d&quot; style=&quot;font-size: 48px;&quot;&gt;Server&lt;/font&gt;" style="rounded=1;whiteSpace=wrap;html=1;sketch=1;hachureGap=4;fontFamily=Architects Daughter;fontSource=https%3A%2F%2Ffonts.googleapis.com%2Fcss%3Ffamily%3DArchitects%2BDaughter;fontSize=24;fontColor=#46495D;strokeColor=#788AA3;fillColor=#B2C9AB;" parent="1" vertex="1">
          <mxGeometry x="290" y="770" width="450" height="100" as="geometry" />
        </mxCell>
        <mxCell id="j2zAglMJPE3-f1ns9y2y-25" style="edgeStyle=orthogonalEdgeStyle;curved=1;rounded=1;sketch=1;hachureGap=4;orthogonalLoop=1;jettySize=auto;html=1;exitX=0.5;exitY=1;exitDx=0;exitDy=0;entryX=0.5;entryY=0;entryDx=0;entryDy=0;fontFamily=Architects Daughter;fontSource=https%3A%2F%2Ffonts.googleapis.com%2Fcss%3Ffamily%3DArchitects%2BDaughter;fontSize=20;fontColor=#46495D;endArrow=open;startSize=14;endSize=14;sourcePerimeterSpacing=8;targetPerimeterSpacing=8;strokeColor=#788AA3;fillColor=#B2C9AB;" parent="1" source="j2zAglMJPE3-f1ns9y2y-18" target="j2zAglMJPE3-f1ns9y2y-24" edge="1">
          <mxGeometry relative="1" as="geometry" />
        </mxCell>
        <mxCell id="j2zAglMJPE3-f1ns9y2y-26" value="监听binlog" style="edgeLabel;html=1;align=center;verticalAlign=middle;resizable=0;points=[];fontSize=20;fontFamily=Architects Daughter;fontColor=#46495D;sketch=1;rounded=1;" parent="j2zAglMJPE3-f1ns9y2y-25" vertex="1" connectable="0">
          <mxGeometry x="-0.2667" y="-1" relative="1" as="geometry">
            <mxPoint as="offset" />
          </mxGeometry>
        </mxCell>
        <mxCell id="j2zAglMJPE3-f1ns9y2y-18" value="&lt;font style=&quot;font-size: 48px;&quot;&gt;Cache&lt;/font&gt;" style="rounded=1;whiteSpace=wrap;html=1;sketch=1;hachureGap=4;fontFamily=Architects Daughter;fontSource=https%3A%2F%2Ffonts.googleapis.com%2Fcss%3Ffamily%3DArchitects%2BDaughter;fontSize=20;fontColor=#46495D;strokeColor=#788AA3;fillColor=#B2C9AB;" parent="1" vertex="1">
          <mxGeometry x="190" y="1095" width="220" height="125" as="geometry" />
        </mxCell>
        <mxCell id="j2zAglMJPE3-f1ns9y2y-19" value="&lt;font style=&quot;font-size: 48px;&quot;&gt;DB&lt;/font&gt;" style="rounded=1;whiteSpace=wrap;html=1;sketch=1;hachureGap=4;fontFamily=Architects Daughter;fontSource=https%3A%2F%2Ffonts.googleapis.com%2Fcss%3Ffamily%3DArchitects%2BDaughter;fontSize=20;fontColor=#46495D;strokeColor=#788AA3;fillColor=#B2C9AB;" parent="1" vertex="1">
          <mxGeometry x="580" y="1095" width="260" height="120" as="geometry" />
        </mxCell>
        <mxCell id="j2zAglMJPE3-f1ns9y2y-27" style="edgeStyle=orthogonalEdgeStyle;curved=1;rounded=1;sketch=1;hachureGap=4;orthogonalLoop=1;jettySize=auto;html=1;exitX=1;exitY=0.5;exitDx=0;exitDy=0;entryX=0.538;entryY=1.042;entryDx=0;entryDy=0;entryPerimeter=0;fontFamily=Architects Daughter;fontSource=https%3A%2F%2Ffonts.googleapis.com%2Fcss%3Ffamily%3DArchitects%2BDaughter;fontSize=20;fontColor=#46495D;endArrow=open;startSize=14;endSize=14;sourcePerimeterSpacing=8;targetPerimeterSpacing=8;strokeColor=#788AA3;fillColor=#B2C9AB;" parent="1" source="j2zAglMJPE3-f1ns9y2y-24" target="j2zAglMJPE3-f1ns9y2y-19" edge="1">
          <mxGeometry relative="1" as="geometry">
            <Array as="points">
              <mxPoint x="410" y="1450" />
              <mxPoint x="720" y="1450" />
            </Array>
          </mxGeometry>
        </mxCell>
        <mxCell id="j2zAglMJPE3-f1ns9y2y-28" value="在这里删除缓存,&amp;nbsp;要实现重&lt;br&gt;试机制,&amp;nbsp;一直失败要提示" style="edgeLabel;html=1;align=center;verticalAlign=middle;resizable=0;points=[];fontSize=20;fontFamily=Architects Daughter;fontColor=#46495D;sketch=1;rounded=1;" parent="j2zAglMJPE3-f1ns9y2y-27" vertex="1" connectable="0">
          <mxGeometry x="-0.1117" y="22" relative="1" as="geometry">
            <mxPoint as="offset" />
          </mxGeometry>
        </mxCell>
        <mxCell id="j2zAglMJPE3-f1ns9y2y-24" value="&lt;span style=&quot;font-size: 48px;&quot;&gt;Cancl&lt;/span&gt;" style="rounded=1;whiteSpace=wrap;html=1;sketch=1;hachureGap=4;fontFamily=Architects Daughter;fontSource=https%3A%2F%2Ffonts.googleapis.com%2Fcss%3Ffamily%3DArchitects%2BDaughter;fontSize=20;fontColor=#46495D;strokeColor=#788AA3;fillColor=#B2C9AB;" parent="1" vertex="1">
          <mxGeometry x="190" y="1390" width="220" height="130" as="geometry" />
        </mxCell>
        <mxCell id="j2zAglMJPE3-f1ns9y2y-29" value="&lt;span style=&quot;color: rgb(255, 0, 0); font-family: 微软雅黑; background-color: rgba(255, 255, 255, 0.01);&quot;&gt;&lt;font style=&quot;font-size: 24px;&quot;&gt;&lt;b&gt;监听binlog删除缓存是保证缓存最终一致性的必要操作。&lt;br&gt;当数据量太大的时候，可在canal删除缓存处引入消息队列如kafka&lt;/b&gt;&lt;/font&gt;&lt;/span&gt;" style="text;html=1;align=center;verticalAlign=middle;resizable=0;points=[];autosize=1;strokeColor=none;fillColor=none;fontSize=20;fontFamily=Architects Daughter;fontColor=#46495D;sketch=1;rounded=1;" parent="1" vertex="1">
          <mxGeometry x="130" y="675" width="730" height="70" as="geometry" />
        </mxCell>
      </root>
    </mxGraphModel>
  </diagram>
</mxfile>
